<?xml version="1.0" encoding="UTF-8"?>
<svg version="1.1" xmlns="http://www.w3.org/2000/svg" width="512" height="512">
<path d="M0 0 C168.96 0 337.92 0 512 0 C512 168.96 512 337.92 512 512 C343.04 512 174.08 512 0 512 C0 343.04 0 174.08 0 0 Z " fill="#175DDC" transform="translate(0,0)"/>
<path d="M0 0 C1.03741087 -0.0034177 2.07482174 -0.0068354 3.14366931 -0.01035666 C6.62476115 -0.01695266 10.10508437 0.00506983 13.58610535 0.0269165 C16.07942181 0.0280446 18.57273961 0.02741185 21.0660553 0.02514648 C26.43650026 0.0242352 31.80670532 0.03559074 37.17708778 0.05809784 C44.94169862 0.09061788 52.70621547 0.10102484 60.47088703 0.10604981 C73.06875399 0.11480247 85.66651731 0.14141722 98.264328 0.17926025 C110.5013019 0.21598111 122.73824763 0.24429249 134.9752655 0.2612915 C135.72966177 0.2623424 136.48405803 0.26339329 137.26131479 0.26447603 C141.04593146 0.26969621 144.83054834 0.27475104 148.61516535 0.27972364 C180.00814194 0.32118478 211.40098973 0.3919299 242.79386902 0.48101807 C242.79386902 1.14101807 242.79386902 1.80101807 242.79386902 2.48101807 C243.62918152 2.57383057 243.62918152 2.57383057 244.48136902 2.66851807 C247.79473374 3.83267324 249.49862198 5.8756025 251.79386902 8.48101807 C252.96124394 11.98314282 252.92569785 14.73187791 252.93431091 18.42921448 C252.9387676 19.49630033 252.9387676 19.49630033 252.94331431 20.58494347 C252.95200429 22.97519958 252.95350987 25.36540561 252.95500183 27.75567627 C252.95963012 29.46737271 252.9646548 31.17906812 252.970047 32.89076233 C252.98317967 37.54840056 252.98961868 42.20602436 252.99405766 46.86367822 C252.99698949 49.77730201 253.00109471 52.69092187 253.00556183 55.60454369 C253.01924457 64.73059582 253.02890508 73.85663896 253.03276372 82.98270065 C253.03723406 93.49691156 253.05473094 104.01099179 253.08376431 114.52516299 C253.10544778 122.66210801 253.11547169 130.79901646 253.11680484 138.93599004 C253.11784893 143.790048 253.12367081 148.64398325 253.14162445 153.49801064 C253.15821862 158.07398391 253.16020613 162.6497438 253.15148544 167.22573662 C253.15072086 168.89531149 253.15498035 170.56489835 253.1649437 172.23444366 C253.22215554 182.42872503 252.42372509 191.56843945 249.79386902 201.48101807 C249.49796309 202.59662094 249.49796309 202.59662094 249.19607925 203.73476124 C241.07388053 232.20111256 221.43421642 257.80168909 198.79386902 276.48101807 C197.87734558 277.28539307 196.96082214 278.08976807 196.01652527 278.91851807 C174.80642762 297.4748341 150.44533494 311.81044997 125.25090027 324.22711182 C122.90901698 325.26306786 122.90901698 325.26306786 121.79386902 326.48101807 C120.10777936 326.55307318 118.41886243 326.56487874 116.73136902 326.54351807 C115.81226746 326.53449463 114.89316589 326.52547119 113.94621277 326.51617432 C113.23593933 326.50457275 112.52566589 326.49297119 111.79386902 326.48101807 C111.79386902 325.82101807 111.79386902 325.16101807 111.79386902 324.48101807 C111.21121277 324.33914063 110.62855652 324.19726318 110.02824402 324.05108643 C102.64822242 322.06756057 96.39913083 318.8354561 89.79386902 315.04351807 C88.70098572 314.42243164 87.60810242 313.80134521 86.48210144 313.16143799 C72.33153616 305.03141942 58.99601016 296.06322463 46.35050964 285.74957275 C44.86502001 284.53900121 43.36875456 283.3416886 41.87199402 282.14508057 C32.46597794 274.57244051 23.55900427 266.74602052 15.79386902 257.48101807 C15.25632996 256.89320557 14.71879089 256.30539307 14.16496277 255.69976807 C-1.40222778 238.65170788 -11.7175653 218.8386134 -17.20613098 196.48101807 C-17.47353057 195.46918347 -17.47353057 195.46918347 -17.74633217 194.43690777 C-19.69732755 186.15856793 -19.50257724 177.84030492 -19.49665833 169.39239502 C-19.50265156 167.67815867 -19.50945893 165.963925 -19.51701355 164.24969482 C-19.53459062 159.61978475 -19.53936515 154.9899487 -19.54064512 150.36000848 C-19.54207093 147.46431928 -19.54634845 144.56864866 -19.55163956 141.6729641 C-19.5701058 131.56299018 -19.57831363 121.45306883 -19.57673645 111.34307861 C-19.57553297 101.92940078 -19.59668443 92.51595144 -19.62822378 83.10233146 C-19.65437991 75.00611048 -19.66510417 66.90996424 -19.66382563 58.81370133 C-19.66331621 53.98397302 -19.66898993 49.15444842 -19.69018173 44.32476234 C-19.70955529 39.78641033 -19.70969473 35.24845677 -19.69514847 30.71009064 C-19.69305883 29.04724482 -19.69777054 27.38437408 -19.70986938 25.72157097 C-19.72534552 23.44697599 -19.71600011 21.17375142 -19.7006073 18.89918518 C-19.70169683 17.62811574 -19.70278637 16.3570463 -19.70390892 15.0474596 C-18.9394775 9.57051947 -16.69431873 6.17728661 -13.09401417 2.0735817 C-8.77443313 -0.30851177 -4.85746114 -0.05835573 0 0 Z " fill="#FDFDFE" transform="translate(139.2061309814453,107.51898193359375)"/>
<path d="M0 0 C0.66 0 1.32 0 2 0 C3.0215265 1.15401474 3.99009266 2.35511722 4.93275452 3.57440186 C9.26431955 8.65393517 14.33595826 11.52101933 20.07592773 14.80957031 C36.11562175 24.43786428 50.98879161 35.37669451 65.4375 47.25 C66.0984668 47.7903463 66.75943359 48.3306926 67.44042969 48.88741302 C101.17880428 76.63932795 121.93833991 108.3977164 126.27392578 152.35742188 C129.80407413 189.76886088 129.13456301 227.48974622 128 265 C127.95226031 266.61773639 127.90455678 268.23547384 127.85688925 269.85321236 C126.60098203 311.97103557 124.29936247 353.99221971 121 396 C87.87579609 398.93432581 54.73608339 400.89838829 21.5 402 C20.28602146 402.04122939 19.07204291 402.08245877 17.82127714 402.12493753 C-92.08931696 405.74747928 -92.08931696 405.74747928 -132.18789673 368.54776001 C-138.80434287 362.23689074 -144.82417441 355.44513896 -150.6875 348.4375 C-151.16374943 347.87077324 -151.63999886 347.30404648 -152.13068008 346.72014618 C-162.71332122 334.08304033 -172.59745368 321.00980547 -181.25774384 306.96331787 C-184.3955333 301.96675824 -187.6394761 298.1763309 -192.22950459 294.44984531 C-194.59728928 292.51088433 -196.56092365 290.30921902 -198.5625 288 C-203.07501346 282.88944259 -207.57073513 277.91240001 -212.9375 273.6875 C-213.618125 273.130625 -214.29875 272.57375 -215 272 C-215 271.34 -215 270.68 -215 270 C-210.90521269 271.71456612 -207.75171162 274.5692128 -204.375 277.375 C-190.3799766 288.74445102 -175.13766066 297.91677188 -159.40356445 306.6628418 C-157.77873661 307.56677091 -156.15755339 308.47727773 -154.53979492 309.39379883 C-153.36380737 310.05738403 -153.36380737 310.05738403 -152.1640625 310.734375 C-151.47135254 311.1272168 -150.77864258 311.52005859 -150.06494141 311.92480469 C-146.81471418 313.61716703 -143.46066574 314.80449729 -140 316 C-140 316.66 -140 317.32 -140 318 C-138.4156683 317.91231752 -136.83246433 317.80412671 -135.25 317.6875 C-134.36828125 317.62949219 -133.4865625 317.57148438 -132.578125 317.51171875 C-129.60621207 316.92183906 -128.39259489 315.81169047 -126 314 C-124.58193524 313.27191253 -123.14106782 312.58699772 -121.68359375 311.94140625 C-95.06347938 299.87163934 -71.03948062 283.13685411 -49.56640625 263.34375 C-47.33175424 261.30297191 -45.05793158 259.33162793 -42.75 257.375 C-38.76088031 253.88552762 -35.3595491 250.09278402 -32 246 C-31.1646875 245.00226563 -30.329375 244.00453125 -29.46875 242.9765625 C-12.96258749 222.90229435 0.13886863 197.88779231 0.12025452 171.36268616 C0.12110894 170.62574931 0.12196337 169.88881246 0.12284368 169.1295442 C0.12448157 166.67756472 0.119005 164.22565474 0.11352539 161.77368164 C0.11324313 160.00912477 0.11340202 158.24456779 0.1139679 156.48001099 C0.11425434 151.70164194 0.10838225 146.92329809 0.10139394 142.14493489 C0.09513501 137.14679038 0.09455459 132.14864526 0.09336853 127.15049744 C0.0902627 117.69112013 0.0820594 108.23175441 0.07201904 98.7723822 C0.06083467 88.00096326 0.05534159 77.22954377 0.05032361 66.45812047 C0.03987616 44.30540718 0.02229121 22.15270432 0 0 Z " fill="#1554C7" transform="translate(391,116)"/>
<path d="M0 0 C33 0 66 0 100 0 C100.20151517 37.76394306 100.20151517 37.76394306 100.24414062 53.65429688 C100.27374679 64.60290307 100.30844915 75.5513161 100.37719727 86.49975586 C100.42725416 94.47538231 100.45934329 102.45085125 100.47044247 110.42663044 C100.4769238 114.64430983 100.49200349 118.86153885 100.52865028 123.07907295 C100.56296354 127.06086849 100.57298307 131.04203457 100.56553841 135.02396393 C100.56689739 136.47383755 100.57661773 137.92373551 100.59602737 139.37347984 C100.9370367 166.19335208 85.44067007 187.00073582 67.50585938 205.46972656 C58.47198049 214.65006911 48.67011894 222.09941996 38.14404297 229.48046875 C36.23184876 230.8356836 34.34719719 232.21841806 32.47265625 233.625 C6.48479289 253 6.48479289 253 0 253 C0 169.51 0 86.02 0 0 Z " fill="#175DDC" transform="translate(256,143)"/>
<path d="M0 0 C3.2826932 1.49076434 5.93077441 3.38620321 8.75 5.625 C9.94882813 6.57246094 9.94882813 6.57246094 11.171875 7.5390625 C11.77515625 8.02117187 12.3784375 8.50328125 13 9 C11.296875 9.73828125 11.296875 9.73828125 9 10 C6.640625 8.41796875 6.640625 8.41796875 4.25 6.1875 C3.45078125 5.45917969 2.6515625 4.73085938 1.828125 3.98046875 C0 2 0 2 0 0 Z " fill="#3066C7" transform="translate(176,386)"/>
</svg>
